Coordinates
version=1
nRows=19
nColumns=36
inDegrees=yes

Units are S.I. units (second, meters, Newtons, ...)
If the header above contains a line with 'inDegrees', this indicates whether rotational values are in degrees (yes) or radians (no).

endheader
time	pelvis_tilt	pelvis_list	pelvis_rotation	pelvis_tx	pelvis_ty	pelvis_tz	hip_flexion_r	hip_adduction_r	hip_rotation_r	knee_angle_r	knee_angle_r_beta	ankle_angle_r	subtalar_angle_r	mtp_angle_r	hip_flexion_l	hip_adduction_l	hip_rotation_l	knee_angle_l	knee_angle_l_beta	ankle_angle_l	subtalar_angle_l	mtp_angle_l	lumbar_extension	lumbar_bending	lumbar_rotation	arm_flex_r	arm_add_r	arm_rot_r	elbow_flex_r	pro_sup_r	arm_flex_l	arm_add_l	arm_rot_l	elbow_flex_l	pro_sup_l
      0.00000000	     11.09152460	     -6.19385586	      8.07997557	      0.66068619	      0.84542285	      0.71553161	     -2.06391225	     10.65592290	      0.46782504	      5.93638441	      0.10360945	     -2.42413699	    -13.19985361	     -7.13664419	     -1.97365310	     -9.42541243	     -1.24659785	     67.88768060	      1.18486355	    -12.64437128	    -20.07238796	     -7.13664419	    -16.45098867	      8.84979199	     -5.45217387	      0.83180731	    -10.60050681	     -5.61932900	     19.39360830	     86.12634101	      6.91574003	     -9.25825364	      3.62188473	     13.87222468	     81.98399503
      0.01666670	     10.40874503	     -6.40950735	      7.05965282	      0.66080818	      0.84208777	      0.71749288	     -2.40742540	     10.95387610	      0.38687120	      5.35281359	      0.09342422	     -4.58331014	    -15.38287091	     -7.17822817	      0.58600227	     -9.59204415	     -1.52373838	     68.91921682	      1.20286725	    -10.23103594	    -23.29320907	     -7.17822817	    -14.73827364	      8.79857846	     -4.49509293	      1.19772922	    -11.00169116	     -5.17112521	     17.72216985	     84.17596128	      6.52305247	     -8.61669948	      3.55139482	     12.49029146	     80.16047679
      0.03333330	     10.25826728	     -5.58545725	      6.46021529	      0.66237308	      0.84179836	      0.71855636	     -3.54354082	     10.14614603	      0.42786161	      5.42054029	      0.09460628	     -4.14846683	    -14.97371425	     -7.21676778	      2.26545926	     -8.31505425	     -1.03412371	     68.19715345	      1.19026487	     -4.82291709	    -24.27634569	     -7.21676778	    -13.90739866	      7.98908928	     -4.10150521	      1.27207425	    -11.33450892	     -4.44715488	     17.04658900	     82.24908037	      6.13377280	     -8.50553814	      3.53928908	     11.25714476	     78.37612117
      0.05000000	     10.11036183	     -4.56112823	      5.96036404	      0.66482346	      0.84268795	      0.71888506	     -4.94323210	      9.13816764	      0.92024405	      4.86546175	      0.08491833	     -2.89408819	    -14.19494474	     -7.23058788	      4.32745434	     -6.91724339	     -0.84477186	     66.51538028	      1.16091239	     -0.93586223	    -23.36531914	     -7.23058788	    -13.65074587	      6.90082394	     -3.72954300	      1.42720136	    -11.57591771	     -3.85818027	     16.88496884	     82.45191762	      5.73968192	     -8.51292539	      3.68350414	     10.59580511	     78.43636752
      0.06666670	      9.60063862	     -3.38340263	      5.23805711	      0.66673285	      0.84221074	      0.71957213	     -5.97773103	      7.82886632	      1.34774454	      4.18302945	      0.07300764	     -1.12746889	    -12.89305718	     -7.24463282	      6.82428729	     -5.48515820	     -1.20428772	     64.34043953	      1.12295251	      0.30886670	    -22.20483918	     -7.24463282	    -12.86190833	      5.42231168	     -2.88668747	      1.47411725	    -11.66614127	     -3.23111478	     16.66799532	     82.48793817	      5.49496674	     -8.58272314	      3.76511076	     10.01636116	     78.36580859
      0.08333330	      9.00315547	     -2.49877091	      4.64541974	      0.66621995	      0.84011553	      0.72005738	     -6.79947551	      6.78062385	      1.25257100	      3.53338881	      0.06166927	      0.80814422	    -11.10350551	     -7.26303494	      9.49510915	     -4.49091364	     -1.63454762	     62.25542324	      1.08656211	     -0.21555583	    -21.06885917	     -7.26303494	    -12.07598572	      4.20163549	     -2.09993154	      1.67455074	    -11.77710253	     -2.12597656	     16.73183762	     80.42360323	      5.27814002	     -8.60160676	      3.87134884	      9.58197799	     76.59583524
      0.10000000	      8.26696803	     -1.90085214	      3.89130834	      0.66305027	      0.83854071	      0.72045952	     -7.36822806	      6.00582981	      1.51221436	      3.00401460	      0.05242995	      2.26331749	    -10.08698350	     -7.31217359	     12.12410225	     -3.86733886	     -2.25161025	     59.93042468	      1.04598323	     -1.08881526	    -20.19530557	     -7.31217359	    -11.11896396	      3.28544266	     -1.24950267	      2.20405160	    -12.19615571	      0.20685555	     17.39870264	     80.20638517	      5.03580766	     -8.77717053	      5.54821347	      9.33500172	     77.17902514
      0.11666670	      7.69193671	     -1.43914339	      3.22191712	      0.65822992	      0.83816345	      0.72099864	     -8.02313944	      5.42122199	      1.40568397	      2.62243941	      0.04577020	      3.49861898	     -8.95271506	     -7.34533433	     14.31208912	     -3.31206003	     -2.71916054	     57.14372677	      0.99734618	     -1.43978695	    -19.37590620	     -7.34533433	    -10.42033774	      2.55416500	     -0.32031775	      2.84081933	    -12.50997214	      1.03832058	     18.70617909	     79.52586500	      5.08753451	     -8.84205786	      6.05470916	      9.27211126	     77.26755627
      0.13333330	      7.08146085	     -1.10488532	      2.65020815	      0.65213999	      0.83759381	      0.72132135	     -8.44430193	      5.00996798	      1.10407195	      2.46024029	      0.04293929	      4.46187889	     -7.98663531	     -7.35828254	     16.22071636	     -2.78523618	     -3.06537916	     53.78805793	      0.93877871	     -1.50456942	    -18.75305754	     -7.35828254	     -9.79852276	      2.02609756	      0.40394378	      3.85045922	    -12.70982884	      1.39526737	     19.86569676	     79.21445744	      5.23879621	     -8.87149579	      6.18614811	      9.40787220	     77.17971966
      0.15000000	      6.37018835	     -0.87106708	      2.20584087	      0.64501868	      0.83651294	      0.72072661	     -8.53379918	      4.73936247	      1.03017415	      2.40670309	      0.04200489	      4.95032389	     -7.85160837	     -7.38071706	     17.94161619	     -2.33703665	     -3.39101436	     49.91843641	      0.87124107	     -1.36596154	    -17.84275791	     -7.38071706	     -9.22091818	      1.65461137	      1.02861411	      4.85957250	    -13.14699679	      2.92356517	     21.51481513	     79.33657098	      5.63661365	     -9.00063771	      7.20446028	      9.52361395	     78.32439572
      0.16666670	      5.55083929	     -0.70779199	      1.85267782	      0.63899592	      0.83543132	      0.71979757	     -8.24238503	      4.51769720	      0.78167974	      2.53970291	      0.04432618	      5.51916547	     -7.43971246	     -7.40423009	     19.57703871	     -1.88730403	     -3.61174128	     45.60810563	      0.79601161	     -1.49704953	    -16.87136031	     -7.40423009	     -8.66303115	      1.44935729	      1.52893909	      6.10348130	    -13.61125246	      4.60735224	     22.83335015	     78.66137814	      6.11682752	     -9.06892027	      8.46138625	      9.69334815	     79.31514718
      0.18333330	      4.45289135	     -0.60669329	      1.46678840	      0.63787272	      0.83400893	      0.72006302	     -7.55319022	      4.33787403	      0.89342889	      2.73821493	      0.04779087	      5.92496275	     -7.44562663	     -7.41062590	     21.40657425	     -1.53015811	     -3.82720225	     41.09929631	      0.71731804	     -1.51506795	    -15.52864977	     -7.41062590	     -7.71350909	      1.33568912	      1.92339876	      7.05584014	    -13.89218588	      4.86444748	     24.40629885	     78.33132610	      6.25386087	     -9.09000804	      8.45091841	     10.17928961	     79.03197660
      0.20000000	      3.48823522	     -0.58897808	      1.18618974	      0.64163226	      0.83188508	      0.72067799	     -7.11395258	      4.22673266	      0.38396900	      2.90404186	      0.05068509	      6.95053327	     -6.17769294	     -7.43276604	     22.94653704	     -1.24403700	     -3.77924789	     36.48806668	      0.63683690	     -1.26559280	    -13.80546017	     -7.43276604	     -6.71355358	      1.39585845	      2.18087839	      7.85795346	    -14.53419731	      7.16063407	     25.66144278	     79.39722128	      6.54631964	     -8.99109874	      9.14277180	      9.72901883	     80.80805489
      0.21666670	      2.20167459	     -0.59883050	      0.78540352	      0.64617997	      0.82806258	      0.72109434	     -6.59707656	      4.15485924	      0.67163593	      2.88515694	      0.05035549	      7.91958139	     -5.66674571	     -7.46605117	     24.61708024	     -1.11601142	     -3.70863667	     31.83643394	      0.55565059	     -0.85604115	    -11.89728845	     -7.46605117	     -5.07321234	      1.50761895	      2.31931210	      8.38713315	    -14.69527978	      7.11958163	     26.30429832	     83.75665603	      6.17406814	     -8.88864476	      6.99088100	      9.88066165	     87.76246851
      0.23333330	      0.81969663	     -0.61147959	      0.36479222	      0.64839333	      0.82408926	      0.72121484	     -6.27581201	      4.10985414	      1.11573240	      2.68688792	      0.04689504	      8.94224420	     -4.93828760	     -7.46576627	     26.26233681	     -1.09082911	     -3.58550602	     27.23147034	      0.47527882	     -0.10866922	     -9.76304794	     -7.46576627	     -3.14097070	      1.60131756	      2.62935564	      8.43706132	    -14.77402728	      7.39686810	     26.93100703	     83.51174671	      5.85724355	     -8.63179569	      6.53872765	      9.58013684	     87.41310347
      0.25000000	     -0.59414101	     -0.63452014	     -0.00162745	      0.64966629	      0.82051697	      0.72142709	     -6.16631666	      4.08907262	      1.60995216	      2.35936785	      0.04117874	      9.77806479	     -4.23773380	     -7.46505296	     27.86689595	     -1.06011325	     -3.18049393	     22.77262766	      0.39745733	      0.66141047	     -7.95731110	     -7.46505296	     -1.06367179	      1.73450399	      2.89631567	      8.23757455	    -14.88800601	      7.59155941	     27.27173252	     82.48405213	      5.40605962	     -8.42575652	      6.33310163	      9.48871398	     86.16940392
      0.26666670	     -2.04100490	     -0.74395174	     -0.41980569	      0.65188786	      0.81840887	      0.72242151	     -6.06795568	      4.16949846	      1.99144754	      2.13363589	      0.03723897	     10.63867144	     -3.14214244	     -7.47099313	     29.37262871	     -1.20147219	     -2.74967326	     18.58013408	      0.32428452	      2.00786292	     -5.51354168	     -7.47099313	      1.19146837	      2.01286820	      2.47093151	      8.68880702	    -15.08957981	     10.47412381	     26.79814912	     85.08673173	      4.52539604	     -8.41387744	      6.48344187	      9.40200247	     88.11631839
      0.28333330	     -3.39769985	     -0.77191464	     -0.79636483	      0.65512118	      0.81716788	      0.72376898	     -6.02580211	      4.18806897	      2.37704630	      2.10401232	      0.03672194	     11.10515666	     -2.49028828	     -7.48571097	     30.50723841	     -1.26911229	     -2.17814744	     14.67099078	      0.25605709	      3.29804098	     -3.07853474	     -7.48571097	      3.43019421	      2.14659017	      2.47795660	      8.28039268	    -14.77877092	      9.23770266	     26.70251496	     89.46206076	      3.87807630	     -8.25119625	      3.86831662	      9.29158658	     92.79912858
      0.30000000	     -4.64566629	     -0.70393104	     -1.11943698	      0.65819409	      0.81441343	      0.72407468	     -5.99461938	      4.11414014	      2.58825097	      2.35660164	      0.04113046	     11.49450823	     -1.81031713	     -7.48643065	     31.29626894	     -1.24352729	     -1.55940551	     11.32653367	      0.19768531	      4.44228980	     -0.71080432	     -7.48643065	      5.66251211	      2.13683887	      2.48638433	      7.82714087	    -14.53014571	      9.49459598	     26.30914451	     89.59690423	      3.24443261	     -8.23624623	      3.66901486	      9.09855214	     92.84496577
